SplineFontDB: 3.2
FontName: IvanLecek_novo
FullName: IvanLecek_novo
FamilyName: IvanLecek_novo
Weight: Book
Copyright: Copyright (c) 2023, ivanl
Version: 001.000
ItalicAngle: 0
UnderlinePosition: -100
UnderlineWidth: 50
Ascent: 800
Descent: 200
InvalidEm: 0
sfntRevision: 0x00010000
LayerCount: 2
Layer: 0 1 "Stra+AX4A-nji" 1
Layer: 1 1 "Prednji" 0
XUID: [1021 425 1170103031 3758]
StyleMap: 0x0000
FSType: 0
OS2Version: 4
OS2_WeightWidthSlopeOnly: 0
OS2_UseTypoMetrics: 1
CreationTime: 1679360448
ModificationTime: 1679412487
PfmFamily: 17
TTFWeight: 400
TTFWidth: 5
LineGap: 90
VLineGap: 0
Panose: 2 0 5 3 0 0 0 0 0 0
OS2TypoAscent: 800
OS2TypoAOffset: 0
OS2TypoDescent: -200
OS2TypoDOffset: 0
OS2TypoLinegap: 90
OS2WinAscent: 795
OS2WinAOffset: 0
OS2WinDescent: 1
OS2WinDOffset: 0
HheadAscent: 795
HheadAOffset: 0
HheadDescent: -1
HheadDOffset: 0
OS2SubXSize: 650
OS2SubYSize: 700
OS2SubXOff: 0
OS2SubYOff: 140
OS2SupXSize: 650
OS2SupYSize: 700
OS2SupXOff: 0
OS2SupYOff: 480
OS2StrikeYSize: 49
OS2StrikeYPos: 258
OS2CapHeight: 789
OS2XHeight: 663
OS2Vendor: 'PfEd'
OS2CodePages: 00000001.00000000
OS2UnicodeRanges: 00000005.00000000.00000000.00000000
MarkAttachClasses: 1
DEI: 91125
ShortTable: cvt  2
  33
  633
EndShort
ShortTable: maxp 16
  1
  0
  23
  168
  4
  0
  0
  2
  0
  1
  1
  0
  64
  46
  0
  0
EndShort
LangName: 1033 "" "" "Regular" "" "" "Version 001.000"
GaspTable: 1 65535 2 0
Encoding: iso8859-2
UnicodeInterp: none
NameList: AGL For New Fonts
DisplaySize: -48
AntiAlias: 1
FitToEm: 0
WinInfo: 0 38 14
BeginPrivate: 0
EndPrivate
BeginChars: 65539 24

StartChar: .notdef
Encoding: 65536 -1 0
Width: 364
GlyphClass: 1
Flags: W
LayerCount: 2
Fore
SplineSet
33 0 m 1,0,-1
 33 666 l 1,1,-1
 298 666 l 1,2,-1
 298 0 l 1,3,-1
 33 0 l 1,0,-1
66 33 m 1,4,-1
 265 33 l 1,5,-1
 265 633 l 1,6,-1
 66 633 l 1,7,-1
 66 33 l 1,4,-1
EndSplineSet
EndChar

StartChar: I
Encoding: 73 73 3
Width: 284
GlyphClass: 1
Flags: W
LayerCount: 2
Fore
SplineSet
0 0 m 1,0,-1
 61 726 l 1,1,2
 75 730 75 730 98.5 737.5 c 128,-1,3
 122 745 122 745 172 760 c 128,-1,4
 222 775 222 775 254 785 c 128,-1,5
 286 795 286 795 284 794 c 0,6,7
 260 784 260 784 246 597.5 c 128,-1,8
 232 411 232 411 241.5 217.5 c 128,-1,9
 251 24 251 24 284 0 c 1,10,11
 281 0 281 0 209.5 10.5 c 128,-1,12
 138 21 138 21 87 19.5 c 128,-1,13
 36 18 36 18 0 0 c 1,0,-1
EndSplineSet
EndChar

StartChar: K
Encoding: 75 75 4
Width: 622
GlyphClass: 1
Flags: W
LayerCount: 2
Fore
SplineSet
0 0 m 1,0,-1
 99 738 l 1,1,-1
 283 794 l 1,2,3
 268 791 268 791 247.5 696 c 128,-1,4
 227 601 227 601 215.5 508 c 128,-1,5
 204 415 204 415 213 416 c 1,6,7
 475 746 475 746 475 746 c 1,8,-1
 621 786 l 1,9,10
 602 766 602 766 554 717.5 c 128,-1,11
 506 669 506 669 482 642 c 128,-1,12
 458 615 458 615 424.5 573 c 128,-1,13
 391 531 391 531 371.5 491 c 128,-1,14
 352 451 352 451 343 410 c 1,15,16
 369 295 369 295 424 202.5 c 128,-1,17
 479 110 479 110 563 14 c 1,18,-1
 441 12 l 1,19,-1
 209 318 l 1,20,21
 196 325 196 325 183 285 c 0,22,23
 158 208 158 208 155 80 c 0,24,25
 152 3 152 3 165 0 c 1,26,-1
 0 0 l 1,0,-1
EndSplineSet
EndChar

StartChar: L
Encoding: 76 76 5
Width: 636
GlyphClass: 1
Flags: W
LayerCount: 2
Fore
SplineSet
0 18 m 1,0,-1
 146 720 l 1,1,-1
 348 780 l 1,2,3
 311 776 311 776 269 626 c 128,-1,4
 227 476 227 476 204 342.5 c 128,-1,5
 181 209 181 209 178 170 c 0,6,7
 175 135 175 135 346 142 c 0,8,9
 485 147 485 147 535 164 c 0,10,11
 547 169 547 169 544 172 c 1,12,13
 571 167 571 167 629 40 c 0,14,15
 630 38 630 38 630 38 c 1,16,17
 624 55 624 55 313.5 42 c 128,-1,18
 3 29 3 29 0 18 c 1,0,-1
881 389 m 1024,19,-1
EndSplineSet
EndChar

StartChar: a
Encoding: 97 97 6
Width: 798
GlyphClass: 1
Flags: W
LayerCount: 2
Fore
SplineSet
894 188 m 1024,0,-1
154 140 m 1,1,2
 156 230 156 230 160 240 c 0,3,4
 163 248 163 248 178.5 261 c 128,-1,5
 194 274 194 274 208 280 c 128,-1,6
 222 286 222 286 276.5 295 c 128,-1,7
 331 304 331 304 346 304 c 0,8,9
 363 304 363 304 430 301.5 c 128,-1,10
 497 299 497 299 502 298 c 2,11,12
 502 298 502 298 510.5 296.5 c 128,-1,13
 519 295 519 295 524 293.5 c 128,-1,14
 529 292 529 292 535.5 288 c 128,-1,15
 542 284 542 284 544 278 c 0,16,17
 548 267 548 267 554 219.5 c 128,-1,18
 560 172 560 172 560 162 c 0,19,20
 560 156 560 156 555 133 c 128,-1,21
 550 110 550 110 550 108 c 0,22,23
 550 104 550 104 527 94 c 128,-1,24
 504 84 504 84 484 79 c 0,25,26
 410 62 410 62 381 62 c 0,27,28
 378 62 378 62 356.5 60.5 c 128,-1,29
 335 59 335 59 314.5 59 c 128,-1,30
 294 59 294 59 281 62 c 0,31,32
 231 72 231 72 219 80 c 0,33,34
 218 81 218 81 197 89.5 c 128,-1,35
 176 98 176 98 171 103 c 0,36,37
 167 107 167 107 163 116 c 128,-1,38
 159 125 159 125 156 132 c 2,39,-1
 154 140 l 1,1,2
98 294 m 1024,40,-1
101 296 m 1,41,42
 78 275 78 275 72 262 c 128,-1,43
 66 249 66 249 68 215 c 0,44,45
 72 153 72 153 66 119 c 0,46,47
 62 101 62 101 64 74 c 128,-1,48
 66 47 66 47 73 41 c 0,49,50
 79 36 79 36 84.5 30.5 c 128,-1,51
 90 25 90 25 93 22.5 c 128,-1,52
 96 20 96 20 98.5 17.5 c 128,-1,53
 101 15 101 15 103.5 14 c 128,-1,54
 106 13 106 13 109 13 c 0,55,56
 174 10 174 10 177 9 c 128,-1,57
 180 8 180 8 224 8 c 0,58,59
 232 8 232 8 248 7 c 128,-1,60
 264 6 264 6 272 6 c 0,61,62
 282 6 282 6 314 6 c 2,63,-1
 346 5 l 1,64,65
 346 5 346 5 369 2.5 c 128,-1,66
 392 0 392 0 403 0 c 128,-1,67
 414 0 414 0 442 3.5 c 128,-1,68
 470 7 470 7 478 7 c 0,69,70
 531 7 531 7 539 9 c 0,71,72
 541 10 541 10 555.5 11.5 c 128,-1,73
 570 13 570 13 586 16 c 128,-1,74
 602 19 602 19 611 23 c 128,-1,75
 620 27 620 27 627.5 34 c 128,-1,76
 635 41 635 41 639 46 c 2,77,-1
 643 52 l 2,78,79
 644 52 644 52 654.5 39 c 128,-1,80
 665 26 665 26 665 24 c 0,81,82
 665 23 665 23 690 19.5 c 128,-1,83
 715 16 715 16 719 16 c 0,84,85
 787 10 787 10 787 10 c 129,-1,86
 787 10 787 10 793 66 c 0,87,88
 792 67 792 67 781.5 70.5 c 128,-1,89
 771 74 771 74 756.5 79.5 c 128,-1,90
 742 85 742 85 731 90 c 0,91,92
 717 97 717 97 703 111 c 128,-1,93
 689 125 689 125 687 126 c 0,94,95
 681 129 681 129 677 143.5 c 128,-1,96
 673 158 673 158 673 168 c 0,97,98
 673 244 673 244 673 244 c 1,99,100
 683 334 683 334 683 354 c 0,101,102
 683 429 683 429 677 468 c 0,103,104
 675 482 675 482 663.5 516.5 c 128,-1,105
 652 551 652 551 649 564 c 0,106,107
 639 613 639 613 611 656 c 0,108,109
 594 683 594 683 533 700 c 0,110,111
 505 708 505 708 400 708 c 0,112,113
 392 708 392 708 334 704 c 128,-1,114
 276 700 276 700 272 700 c 128,-1,115
 268 700 268 700 219.5 689.5 c 128,-1,116
 171 679 171 679 124 668 c 128,-1,117
 77 657 77 657 80 658 c 0,118,119
 110 664 110 664 165 621 c 0,120,121
 204 590 204 590 195 581 c 0,122,123
 195 580 195 580 193 580 c 1,124,125
 195 580 195 580 212 584.5 c 128,-1,126
 229 589 229 589 249 592.5 c 128,-1,127
 269 596 269 596 280 594 c 0,128,129
 292 592 292 592 339.5 595 c 128,-1,130
 387 598 387 598 407 597 c 0,131,132
 457 595 457 595 521 574 c 0,133,134
 533 570 533 570 535.5 554.5 c 128,-1,135
 538 539 538 539 537.5 516.5 c 128,-1,136
 537 494 537 494 542 483 c 0,137,138
 555 449 555 449 518 376 c 0,139,140
 508 356 508 356 471 352.5 c 128,-1,141
 434 349 434 349 408.5 354 c 128,-1,142
 383 359 383 359 373 362 c 0,143,144
 285 360 285 360 285 360 c 1,145,146
 227 347 227 347 222 342 c 0,147,148
 219 339 219 339 193.5 335.5 c 128,-1,149
 168 332 168 332 167 332 c 0,150,151
 164 331 164 331 101 296 c 1,41,42
EndSplineSet
EndChar

StartChar: c
Encoding: 99 99 7
Width: 712
GlyphClass: 1
Flags: W
LayerCount: 2
Fore
SplineSet
581 200 m 1024,0,-1
653 511 m 1,1,2
 561 547 561 547 541 551 c 0,3,4
 508 558 508 558 477 561 c 0,5,6
 426 567 426 567 403 565 c 0,7,8
 375 563 375 563 299 563 c 0,9,10
 272 563 272 563 227 545 c 0,11,12
 194 532 194 532 173 515 c 0,13,14
 170 512 170 512 135 469 c 0,15,16
 114 443 114 443 111 421 c 0,17,18
 109 406 109 406 106.5 370 c 128,-1,19
 104 334 104 334 103 329 c 2,20,21
 103 329 103 329 103 261 c 0,22,23
 103 229 103 229 121 181 c 0,24,25
 124 172 124 172 138 150 c 128,-1,26
 152 128 152 128 155 123 c 0,27,28
 170 96 170 96 199 67 c 0,29,30
 218 48 218 48 257 31 c 0,31,32
 267 27 267 27 283 18.5 c 128,-1,33
 299 10 299 10 310 5 c 128,-1,34
 321 0 321 0 329 0 c 2,35,-1
 399 0 l 2,36,37
 410 0 410 0 458.5 8 c 128,-1,38
 507 16 507 16 513 19 c 0,39,40
 516 21 516 21 531.5 24.5 c 128,-1,41
 547 28 547 28 553 31 c 0,42,43
 598 58 598 58 607 67 c 0,44,45
 608 68 608 68 616 74.5 c 128,-1,46
 624 81 624 81 632 89 c 128,-1,47
 640 97 640 97 646 106 c 0,48,49
 654 117 654 117 695 158 c 1,50,51
 674 147 674 147 623 168 c 0,52,53
 609 174 609 174 609 177 c 1,54,55
 530 118 530 118 510 112 c 0,56,57
 501 109 501 109 477 106.5 c 128,-1,58
 453 104 453 104 432.5 102 c 128,-1,59
 412 100 412 100 410 99 c 128,-1,60
 408 98 408 98 392 102.5 c 128,-1,61
 376 107 376 107 357 111.5 c 128,-1,62
 338 116 338 116 332 116 c 128,-1,63
 326 116 326 116 312 122 c 128,-1,64
 298 128 298 128 286 134 c 2,65,-1
 274 140 l 2,66,67
 269 140 269 140 251 161 c 0,68,69
 235 180 235 180 213 223 c 0,70,71
 197 255 197 255 197 279 c 0,72,73
 197 282 197 282 195.5 298 c 128,-1,74
 194 314 194 314 195 327 c 0,75,76
 196 337 196 337 200 349.5 c 128,-1,77
 204 362 204 362 208 370 c 2,78,-1
 211 379 l 1,79,80
 211 404 211 404 233 417 c 0,81,82
 280 445 280 445 311 453 c 0,83,84
 312 453 312 453 319 455.5 c 128,-1,85
 326 458 326 458 331.5 459.5 c 128,-1,86
 337 461 337 461 347 462 c 128,-1,87
 357 463 357 463 366 463 c 0,88,89
 427 461 427 461 446 456 c 0,90,91
 494 444 494 444 524 444 c 0,92,93
 534 444 534 444 567 439 c 128,-1,94
 600 434 600 434 608 434 c 0,95,96
 615 434 615 434 673 417 c 1,97,98
 666 421 666 421 652 468 c 0,99,100
 639 514 639 514 653 511 c 1,1,2
EndSplineSet
EndChar

StartChar: e
Encoding: 101 101 8
Width: 712
GlyphClass: 1
Flags: W
LayerCount: 2
Fore
SplineSet
192 360 m 1024,0,-1
196 401 m 1,1,2
 205 440 205 440 206 448 c 0,3,4
 207 454 207 454 223.5 471.5 c 128,-1,5
 240 489 240 489 244 490 c 0,6,7
 271 495 271 495 296 498 c 0,8,9
 314 500 314 500 355 499 c 0,10,11
 441 497 441 497 486 496 c 0,12,13
 552 495 552 495 572 490 c 0,14,15
 583 488 583 488 587 484 c 128,-1,16
 591 480 591 480 605 459 c 0,17,18
 629 424 629 424 626 400 c 0,19,20
 622 365 622 365 622 365 c 1,21,22
 602 352 602 352 596 351 c 0,23,24
 547 343 547 343 536 346 c 0,25,26
 530 348 530 348 496.5 352 c 128,-1,27
 463 356 463 356 460 357 c 0,28,29
 455 358 455 358 436 354.5 c 128,-1,30
 417 351 417 351 403 351 c 0,31,32
 336 351 336 351 336 351 c 2,33,34
 308 348 308 348 290 347 c 0,35,36
 275 346 275 346 234 353 c 0,37,38
 213 356 213 356 202 362 c 0,39,40
 200 363 200 363 198.5 372.5 c 128,-1,41
 197 382 197 382 196 392 c 2,42,-1
 196 401 l 1,1,2
581 200 m 1024,43,-1
651 514 m 1,44,45
 561 547 561 547 541 551 c 0,46,47
 508 558 508 558 477 561 c 0,48,49
 426 567 426 567 403 565 c 0,50,51
 375 563 375 563 299 563 c 0,52,53
 296 563 296 563 285 560 c 128,-1,54
 274 557 274 557 257 552 c 128,-1,55
 240 547 240 547 227 545 c 0,56,57
 209 542 209 542 173 515 c 0,58,59
 170 513 170 513 135 469 c 0,60,61
 114 443 114 443 111 421 c 0,62,63
 109 406 109 406 106.5 370 c 128,-1,64
 104 334 104 334 103 329 c 2,65,66
 103 329 103 329 103 261 c 0,67,68
 103 229 103 229 121 181 c 0,69,70
 124 172 124 172 138 150 c 128,-1,71
 152 128 152 128 155 123 c 0,72,73
 170 96 170 96 199 67 c 0,74,75
 218 48 218 48 257 31 c 0,76,77
 267 27 267 27 283 18.5 c 128,-1,78
 299 10 299 10 310 5 c 128,-1,79
 321 0 321 0 329 0 c 2,80,-1
 399 0 l 2,81,82
 410 0 410 0 458.5 8 c 128,-1,83
 507 16 507 16 513 19 c 0,84,85
 516 21 516 21 531.5 24.5 c 128,-1,86
 547 28 547 28 553 31 c 0,87,88
 598 58 598 58 607 67 c 0,89,90
 608 68 608 68 616 74.5 c 128,-1,91
 624 81 624 81 632 89 c 128,-1,92
 640 97 640 97 646 106 c 0,93,94
 654 117 654 117 695 158 c 1,95,96
 674 147 674 147 623 168 c 0,97,98
 609 174 609 174 609 177 c 1,99,100
 530 118 530 118 510 112 c 0,101,102
 501 109 501 109 477 106.5 c 128,-1,103
 453 104 453 104 432.5 102 c 128,-1,104
 412 100 412 100 410 99 c 128,-1,105
 408 98 408 98 392 102.5 c 128,-1,106
 376 107 376 107 357 111.5 c 128,-1,107
 338 116 338 116 332 116 c 128,-1,108
 326 116 326 116 312 122 c 128,-1,109
 298 128 298 128 286 134 c 2,110,-1
 274 140 l 2,111,112
 269 140 269 140 251 161 c 0,113,114
 235 180 235 180 213 223 c 0,115,116
 197 255 197 255 197 279 c 0,117,118
 197 308 197 308 227 314 c 0,119,120
 236 316 236 316 252 316.5 c 128,-1,121
 268 317 268 317 279 317 c 128,-1,122
 290 317 290 317 290 318 c 1,123,124
 290 318 290 318 303 315.5 c 128,-1,125
 316 313 316 313 331 311.5 c 128,-1,126
 346 310 346 310 357 316 c 0,127,128
 366 324 366 324 406 318 c 2,129,-1
 447 313 l 2,130,131
 452 314 452 314 516 312 c 0,132,133
 582 310 582 310 620 300 c 0,134,135
 638 295 638 295 652 300.5 c 128,-1,136
 666 306 666 306 672 306 c 0,137,138
 685 306 685 306 690 326 c 128,-1,139
 695 346 695 346 694 365 c 128,-1,140
 693 384 693 384 690 402 c 2,141,-1
 688 420 l 2,142,143
 687 437 687 437 683 452.5 c 128,-1,144
 679 468 679 468 673.5 478.5 c 128,-1,145
 668 489 668 489 663 497 c 128,-1,146
 658 505 658 505 654 510 c 2,147,-1
 651 514 l 1,44,45
EndSplineSet
EndChar

StartChar: k
Encoding: 107 107 9
Width: 622
GlyphClass: 1
Flags: W
LayerCount: 2
Fore
SplineSet
0 0 m 1,0,-1
 99 738 l 1,1,-1
 283 794 l 1,2,3
 268 791 268 791 247.5 696 c 128,-1,4
 227 601 227 601 215.5 508 c 128,-1,5
 204 415 204 415 213 416 c 1,6,7
 475 746 475 746 475 746 c 1,8,-1
 621 786 l 1,9,10
 602 766 602 766 554 717.5 c 128,-1,11
 506 669 506 669 482 642 c 128,-1,12
 458 615 458 615 424.5 573 c 128,-1,13
 391 531 391 531 371.5 491 c 128,-1,14
 352 451 352 451 343 410 c 1,15,16
 369 295 369 295 424 202.5 c 128,-1,17
 479 110 479 110 563 14 c 1,18,-1
 441 12 l 1,19,-1
 209 318 l 1,20,21
 196 325 196 325 183 285 c 0,22,23
 158 208 158 208 155 80 c 0,24,25
 152 3 152 3 165 0 c 1,26,-1
 0 0 l 1,0,-1
EndSplineSet
EndChar

StartChar: l
Encoding: 108 108 10
Width: 284
GlyphClass: 1
Flags: W
LayerCount: 2
Fore
SplineSet
18 18 m 1,0,-1
 96 738 l 1,1,2
 107 741 107 741 124.5 745.5 c 128,-1,3
 142 750 142 750 179 760 c 128,-1,4
 216 770 216 770 240 776.5 c 128,-1,5
 264 783 264 783 262 782 c 0,6,7
 244 775 244 775 223.5 662 c 128,-1,8
 203 549 203 549 191 414 c 128,-1,9
 179 279 179 279 183 159.5 c 128,-1,10
 187 40 187 40 212 22 c 1,11,12
 197 23 197 23 157 31.5 c 128,-1,13
 117 40 117 40 86 38 c 128,-1,14
 55 36 55 36 18 18 c 1,0,-1
EndSplineSet
EndChar

StartChar: n
Encoding: 110 110 11
Width: 626
GlyphClass: 1
Flags: W
LayerCount: 2
Fore
SplineSet
99 718 m 1,0,1
 97 674 97 674 93 601 c 128,-1,2
 89 528 89 528 81 374.5 c 128,-1,3
 73 221 73 221 69 119 c 128,-1,4
 65 17 65 17 67 18 c 2,5,-1
 154 25 l 2,6,7
 167 25 167 25 165 24 c 0,8,9
 156 34 156 34 163 131 c 128,-1,10
 170 228 170 228 192 352 c 128,-1,11
 214 476 214 476 231 492 c 0,12,13
 271 522 271 522 273 522 c 0,14,15
 285 522 285 522 341 536 c 0,16,17
 364 542 364 542 379 538 c 0,18,19
 411 530 411 530 427 530 c 0,20,21
 457 530 457 530 473 522 c 0,22,23
 482 517 482 517 501 496 c 128,-1,24
 520 475 520 475 521 466 c 0,25,26
 522 460 522 460 524 421.5 c 128,-1,27
 526 383 526 383 527 376 c 0,28,29
 528 368 528 368 526.5 338 c 128,-1,30
 525 308 525 308 525 304 c 0,31,32
 525 268 525 268 521 248 c 2,33,34
 521 248 521 248 513 152 c 0,35,36
 508 96 508 96 509 94 c 0,37,38
 510 91 510 91 509.5 79 c 128,-1,39
 509 67 509 67 508.5 59.5 c 128,-1,40
 508 52 508 52 509 50 c 0,41,42
 510 50 510 50 509 42.5 c 128,-1,43
 508 35 508 35 506 28 c 2,44,-1
 505 20 l 1,45,-1
 601 28 l 1,46,47
 603 77 603 77 608 136 c 128,-1,48
 613 195 613 195 615.5 266 c 128,-1,49
 618 337 618 337 619 474 c 0,50,51
 619 528 619 528 615 532 c 2,52,53
 615 532 615 532 593 576 c 0,54,55
 586 590 586 590 569 600 c 0,56,57
 562 604 562 604 557.5 607.5 c 128,-1,58
 553 611 553 611 549 613 c 128,-1,59
 545 615 545 615 533 620 c 0,60,61
 523 624 523 624 511 630.5 c 128,-1,62
 499 637 499 637 489 638 c 0,63,64
 453 642 453 642 423 642 c 0,65,66
 371 642 371 642 371 642 c 1,67,68
 312 637 312 637 301 630 c 0,69,70
 285 620 285 620 269 616 c 0,71,72
 266 615 266 615 231 588 c 0,73,74
 225 583 225 583 223 596 c 0,75,76
 217 635 217 635 238 704 c 0,77,78
 255 757 255 757 277 770 c 1,79,80
 236 744 236 744 202 731 c 128,-1,81
 168 718 168 718 146 717.5 c 128,-1,82
 124 717 124 717 99 718 c 1,0,1
EndSplineSet
EndChar

StartChar: v
Encoding: 118 118 12
Width: 1000
GlyphClass: 1
Flags: W
LayerCount: 2
Fore
SplineSet
57 632 m 1,0,-1
 353 12 l 1,1,-1
 533 12 l 1,2,3
 553 58 553 58 603 176.5 c 128,-1,4
 653 295 653 295 681.5 358 c 128,-1,5
 710 421 710 421 763.5 519 c 128,-1,6
 817 617 817 617 877 700 c 1,7,8
 829 686 829 686 788.5 683.5 c 128,-1,9
 748 681 748 681 723 684 c 1,10,11
 674 618 674 618 631 539.5 c 128,-1,12
 588 461 588 461 565.5 409.5 c 128,-1,13
 543 358 543 358 504 263 c 128,-1,14
 465 168 465 168 449 130 c 1,15,16
 438 153 438 153 407 213 c 128,-1,17
 376 273 376 273 362.5 304.5 c 128,-1,18
 349 336 349 336 325.5 398 c 128,-1,19
 302 460 302 460 283.5 535.5 c 128,-1,20
 265 611 265 611 247 710 c 1,21,22
 196 667 196 667 151.5 646 c 128,-1,23
 107 625 107 625 57 632 c 1,0,-1
EndSplineSet
EndChar

StartChar: Scaron
Encoding: 352 352 13
Width: 550
GlyphClass: 1
Flags: W
LayerCount: 2
Fore
SplineSet
106 750 m 1,0,-1
 186 765 l 1,1,2
 188 721 188 721 238 706 c 1,3,4
 251 757 251 757 308 775 c 1,5,-1
 389 788 l 1,6,7
 378 788 378 788 352.5 761.5 c 128,-1,8
 327 735 327 735 310.5 706 c 128,-1,9
 294 677 294 677 306 670 c 0,10,11
 308 669 308 669 278 667 c 128,-1,12
 248 665 248 665 220.5 664.5 c 128,-1,13
 193 664 193 664 186 666 c 0,14,15
 106 750 106 750 106 750 c 1,0,-1
445 582 m 1,16,17
 379 604 379 604 359 612 c 0,18,19
 347 617 347 617 298.5 621.5 c 128,-1,20
 250 626 250 626 249 626 c 0,21,22
 243 628 243 628 165 628 c 0,23,24
 161 628 161 628 121 621 c 128,-1,25
 81 614 81 614 73 610 c 0,26,27
 64 605 64 605 52 593 c 128,-1,28
 40 581 40 581 39 574 c 0,29,30
 37 565 37 565 34.5 530 c 128,-1,31
 32 495 32 495 33 488 c 0,32,33
 35 480 35 480 89 412 c 0,34,35
 96 403 96 403 140 386.5 c 128,-1,36
 184 370 184 370 209 370 c 0,37,38
 277 370 277 370 307 360 c 0,39,40
 309 359 309 359 333.5 355.5 c 128,-1,41
 358 352 358 352 369 342 c 0,42,43
 382 330 382 330 397.5 304.5 c 128,-1,44
 413 279 413 279 413 270 c 0,45,46
 413 120 413 120 401 118 c 0,47,48
 397 117 397 117 366 104.5 c 128,-1,49
 335 92 335 92 331 92 c 0,50,51
 328 92 328 92 281 101 c 128,-1,52
 234 110 234 110 225 110 c 0,53,54
 201 110 201 110 129 128 c 0,55,56
 97 136 97 136 75 136 c 0,57,58
 72 136 72 136 54.5 141.5 c 128,-1,59
 37 147 37 147 33 146 c 128,-1,60
 29 145 29 145 23 146 c 128,-1,61
 17 147 17 147 11 148 c 2,62,-1
 5 150 l 2,63,64
 4 150 4 150 6.5 133.5 c 128,-1,65
 9 117 9 117 12 100 c 2,66,-1
 15 84 l 1,67,68
 69 40 69 40 71 40 c 2,69,70
 71 40 71 40 89.5 37 c 128,-1,71
 108 34 108 34 128.5 31 c 128,-1,72
 149 28 149 28 155 28 c 0,73,74
 178 28 178 28 243 18 c 0,75,76
 244 18 244 18 313 14 c 0,77,78
 357 12 357 12 399 22 c 0,79,80
 447 34 447 34 463 40 c 0,81,82
 478 45 478 45 491 90 c 0,83,84
 494 100 494 100 504.5 119 c 128,-1,85
 515 138 515 138 519 150 c 0,86,87
 521 157 521 157 528.5 174.5 c 128,-1,88
 536 192 536 192 537 202 c 0,89,90
 538 207 538 207 541 217.5 c 128,-1,91
 544 228 544 228 544 234 c 128,-1,92
 544 240 544 240 541 258 c 0,93,94
 538 269 538 269 536 280.5 c 128,-1,95
 534 292 534 292 532 298.5 c 128,-1,96
 530 305 530 305 525 314 c 0,97,98
 519 324 519 324 522 328.5 c 128,-1,99
 525 333 525 333 520 339.5 c 128,-1,100
 515 346 515 346 495 358 c 0,101,102
 454 382 454 382 419 394 c 0,103,104
 368 411 368 411 361 414 c 0,105,106
 353 417 353 417 309.5 424 c 128,-1,107
 266 431 266 431 261 432 c 128,-1,108
 256 433 256 433 243 439.5 c 128,-1,109
 230 446 230 446 207 452 c 0,110,111
 200 454 200 454 192 455.5 c 128,-1,112
 184 457 184 457 180 458 c 128,-1,113
 176 459 176 459 171.5 460 c 128,-1,114
 167 461 167 461 165 462 c 128,-1,115
 163 463 163 463 161 464.5 c 128,-1,116
 159 466 159 466 157.5 467.5 c 128,-1,117
 156 469 156 469 155 472 c 0,118,119
 145 492 145 492 145 522 c 0,120,121
 145 541 145 541 159 548 c 0,122,123
 195 566 195 566 221 556 c 0,124,125
 230 552 230 552 272.5 538.5 c 128,-1,126
 315 525 315 525 321 522 c 0,127,128
 339 513 339 513 389 498 c 0,129,130
 408 494 408 494 434 495 c 128,-1,131
 460 496 460 496 471 498 c 0,132,133
 478 499 478 499 496.5 508.5 c 128,-1,134
 515 518 515 518 515 520 c 0,135,136
 515 521 515 521 504 530.5 c 128,-1,137
 493 540 493 540 474 556.5 c 128,-1,138
 455 573 455 573 445 582 c 1,16,17
EndSplineSet
EndChar

StartChar: Zcaron
Encoding: 381 381 14
Width: 790
GlyphClass: 1
Flags: W
LayerCount: 2
Fore
SplineSet
67 0 m 1,0,1
 1 120 1 120 0 120 c 0,2,3
 -5 120 -5 120 38 146 c 0,4,5
 89 177 89 177 278 284 c 0,6,7
 498 409 498 409 545 438 c 0,8,9
 556 445 556 445 498 448 c 0,10,11
 344 457 344 457 118 444 c 0,12,13
 12 438 12 438 0 430 c 1,14,15
 93 542 93 542 95 542 c 0,16,17
 705 544 705 544 705 544 c 1,18,19
 685 529 685 529 697 466 c 0,20,21
 707 415 707 415 722 414 c 0,22,23
 725 414 725 414 727 416 c 0,24,25
 744 430 744 430 705 411 c 0,26,27
 581 350 581 350 373 224 c 0,28,29
 224 133 224 133 239 128 c 1,30,-1
 717 128 l 1,31,32
 703 127 703 127 753 60 c 0,33,34
 792 9 792 9 785 8 c 0,35,36
 783 8 783 8 779 10 c 0,37,38
 755 21 755 21 671 24.5 c 128,-1,39
 587 28 587 28 485.5 25.5 c 128,-1,40
 384 23 384 23 286.5 18 c 128,-1,41
 189 13 189 13 125.5 7.5 c 128,-1,42
 62 2 62 2 67 0 c 1,0,1
303 778 m 1,43,44
 316 759 316 759 328.5 745.5 c 128,-1,45
 341 732 341 732 355.5 723 c 128,-1,46
 370 714 370 714 378 710 c 128,-1,47
 386 706 386 706 404 700 c 128,-1,48
 422 694 422 694 427 692 c 1,49,50
 468 751 468 751 559 776 c 1,51,-1
 615 764 l 1,52,53
 586 764 586 764 519 709 c 0,54,55
 469 667 469 667 481 662 c 1,56,57
 399 654 399 654 399 654 c 1,58,-1
 265 738 l 1,59,-1
 303 778 l 1,43,44
EndSplineSet
EndChar

StartChar: scaron
Encoding: 353 353 15
Width: 588
GlyphClass: 1
Flags: W
LayerCount: 2
Fore
SplineSet
462 399 m 1,0,1
 421 422 421 422 412 425 c 0,2,3
 408 426 408 426 385.5 437 c 128,-1,4
 363 448 363 448 359 449 c 0,5,6
 337 454 337 454 308 456 c 0,7,8
 267 458 267 458 247 456 c 0,9,10
 237 455 237 455 212 448.5 c 128,-1,11
 187 442 187 442 177 440 c 0,12,13
 151 436 151 436 134 401 c 0,14,15
 133 399 133 399 124 337 c 0,16,17
 122 326 122 326 154.5 293 c 128,-1,18
 187 260 187 260 193 265 c 0,19,20
 197 269 197 269 264 242 c 0,21,22
 289 232 289 232 325 230 c 0,23,24
 340 229 340 229 376 222 c 0,25,26
 387 220 387 220 401 210.5 c 128,-1,27
 415 201 415 201 424 192 c 128,-1,28
 433 183 433 183 433 181 c 0,29,30
 433 180 433 180 436.5 170.5 c 128,-1,31
 440 161 440 161 441 153 c 128,-1,32
 442 145 442 145 438 136 c 0,33,34
 436 133 436 133 429 119.5 c 128,-1,35
 422 106 422 106 415.5 98 c 128,-1,36
 409 90 409 90 403 88 c 0,37,38
 365 74 365 74 352 78 c 0,39,40
 346 80 346 80 331 81.5 c 128,-1,41
 316 83 316 83 300.5 84 c 128,-1,42
 285 85 285 85 283 85 c 0,43,44
 280 85 280 85 254.5 87 c 128,-1,45
 229 89 229 89 220 90 c 0,46,47
 155 99 155 99 148 98 c 0,48,49
 140 97 140 97 131.5 94 c 128,-1,50
 123 91 123 91 118 88 c 2,51,-1
 114 85 l 2,52,53
 110 79 110 79 104 77.5 c 128,-1,54
 98 76 98 76 98 73.5 c 128,-1,55
 98 71 98 71 100 53 c 1,56,57
 109 45 109 45 117.5 36 c 128,-1,58
 126 27 126 27 129 24 c 128,-1,59
 132 21 132 21 137.5 16.5 c 128,-1,60
 143 12 143 12 144.5 13.5 c 128,-1,61
 146 15 146 15 152 16 c 2,62,63
 152 16 152 16 168 13.5 c 128,-1,64
 184 11 184 11 202 8 c 128,-1,65
 220 5 220 5 224 5 c 128,-1,66
 228 5 228 5 251.5 2.5 c 128,-1,67
 275 0 275 0 283 0 c 0,68,69
 338 0 338 0 368 6 c 0,70,71
 370 6 370 6 386.5 8.5 c 128,-1,72
 403 11 403 11 405 12 c 0,73,74
 406 12 406 12 412.5 12.5 c 128,-1,75
 419 13 419 13 426 14.5 c 128,-1,76
 433 16 433 16 436 19 c 0,77,78
 438 21 438 21 444.5 26.5 c 128,-1,79
 451 32 451 32 456 36.5 c 128,-1,80
 461 41 461 41 462 44 c 0,81,82
 476 71 476 71 477 76 c 0,83,84
 483 98 483 98 487 106 c 0,85,86
 497 128 497 128 497 143 c 0,87,88
 497 145 497 145 498 151.5 c 128,-1,89
 499 158 499 158 498 163.5 c 128,-1,90
 497 169 497 169 493 176 c 0,91,92
 490 181 490 181 481.5 197 c 128,-1,93
 473 213 473 213 468 217 c 0,94,95
 464 220 464 220 455.5 230 c 128,-1,96
 447 240 447 240 441 244 c 0,97,98
 425 256 425 256 406 259 c 0,99,100
 395 261 395 261 380 262.5 c 128,-1,101
 365 264 365 264 354 266 c 0,102,103
 341 268 341 268 320 274.5 c 128,-1,104
 299 281 299 281 298 281 c 0,105,106
 266 288 266 288 258 293 c 128,-1,107
 250 298 250 298 245.5 300 c 128,-1,108
 241 302 241 302 233 307 c 0,109,110
 229 310 229 310 223.5 312.5 c 128,-1,111
 218 315 218 315 217 316 c 128,-1,112
 216 317 216 317 214.5 319.5 c 128,-1,113
 213 322 213 322 212 326 c 0,114,115
 205 352 205 352 205 362 c 0,116,117
 205 380 205 380 209 384 c 0,118,119
 211 386 211 386 223.5 390.5 c 128,-1,120
 236 395 236 395 239 395 c 0,121,122
 272 395 272 395 274 394 c 0,123,124
 277 393 277 393 291.5 390 c 128,-1,125
 306 387 306 387 312 384 c 0,126,127
 323 379 323 379 336 376 c 0,128,129
 342 375 342 375 358 369.5 c 128,-1,130
 374 364 374 364 378 363 c 0,131,132
 395 361 395 361 412 356 c 0,133,134
 426 352 426 352 438 352 c 0,135,136
 443 352 443 352 450 351 c 128,-1,137
 457 350 457 350 462 349 c 2,138,-1
 467 348 l 1,139,140
 484 362 484 362 481.5 372 c 128,-1,141
 479 382 479 382 470 390 c 2,142,-1
 462 399 l 1,0,1
412 592 m 1,143,144
 409 589 409 589 399 581.5 c 128,-1,145
 389 574 389 574 384.5 571 c 128,-1,146
 380 568 380 568 372 561 c 128,-1,147
 364 554 364 554 360 550 c 128,-1,148
 356 546 356 546 350 539.5 c 128,-1,149
 344 533 344 533 341 528 c 128,-1,150
 338 523 338 523 335.5 516.5 c 128,-1,151
 333 510 333 510 333 504 c 1,152,153
 281 502 281 502 279 502 c 0,154,155
 209 564 209 564 209 564 c 1,156,-1
 257 588 l 1,157,158
 254 583 254 583 264.5 570 c 128,-1,159
 275 557 275 557 287.5 548 c 128,-1,160
 300 539 300 539 301 544 c 0,161,162
 304 553 304 553 320 571.5 c 128,-1,163
 336 590 336 590 349 592 c 1,164,165
 351 584 351 584 360.5 584 c 128,-1,166
 370 584 370 584 388 588 c 128,-1,167
 406 592 406 592 412 592 c 1,143,144
EndSplineSet
EndChar

StartChar: zcaron
Encoding: 382 382 16
Width: 487
GlyphClass: 1
Flags: W
LayerCount: 2
Fore
SplineSet
23 342 m 1,0,-1
 437 391 l 1,1,2
 430 381 430 381 432.5 369 c 128,-1,3
 435 357 435 357 440 350.5 c 128,-1,4
 445 344 445 344 452.5 331.5 c 128,-1,5
 460 319 460 319 463 308 c 1,6,7
 429 302 429 302 309 219 c 0,8,9
 198 143 198 143 204 128 c 0,10,11
 205 125 205 125 213 126 c 0,12,13
 216 126 216 126 276 122.5 c 128,-1,14
 336 119 336 119 384.5 117 c 128,-1,15
 433 115 433 115 443 118 c 1,16,17
 445 128 445 128 462 82 c 0,18,19
 468 67 468 67 478 36 c 2,20,-1
 485 18 l 1,21,22
 479 52 479 52 238 49 c 0,23,24
 57 46 57 46 13 32 c 0,25,26
 6 30 6 30 9 28 c 1,27,28
 8 27 8 27 10.5 44.5 c 128,-1,29
 13 62 13 62 18.5 83.5 c 128,-1,30
 24 105 24 105 31 114 c 0,31,32
 46 134 46 134 186 219.5 c 128,-1,33
 326 305 326 305 367 306 c 1,34,-1
 5 278 l 1,35,36
 27 303 27 303 23 342 c 1,0,-1
319 546 m 1,37,-1
 396 566 l 1,38,39
 379 561 379 561 355 519.5 c 128,-1,40
 331 478 331 478 334 460 c 0,41,42
 334 459 334 459 308 454.5 c 128,-1,43
 282 450 282 450 255 446.5 c 128,-1,44
 228 443 228 443 228 444 c 128,-1,45
 228 445 228 445 210.5 463 c 128,-1,46
 193 481 193 481 176 498.5 c 128,-1,47
 159 516 159 516 160 516 c 0,48,49
 200 532 200 532 200 532 c 1,50,51
 200 519 200 519 239 497 c 0,52,53
 276 476 276 476 277 489 c 0,54,55
 279 516 279 516 319 546 c 1,37,-1
EndSplineSet
EndChar

StartChar: Cacute
Encoding: 262 262 17
Width: 712
GlyphClass: 1
Flags: W
LayerCount: 2
Fore
SplineSet
581 200 m 1024,0,-1
653 511 m 1,1,2
 561 547 561 547 541 551 c 0,3,4
 508 558 508 558 477 561 c 0,5,6
 426 567 426 567 403 565 c 0,7,8
 375 563 375 563 299 563 c 0,9,10
 272 563 272 563 227 545 c 0,11,12
 194 532 194 532 173 515 c 0,13,14
 170 512 170 512 135 469 c 0,15,16
 114 443 114 443 111 421 c 0,17,18
 109 406 109 406 106.5 370 c 128,-1,19
 104 334 104 334 103 329 c 2,20,21
 103 329 103 329 103 261 c 0,22,23
 103 229 103 229 121 181 c 0,24,25
 124 172 124 172 138 150 c 128,-1,26
 152 128 152 128 155 123 c 0,27,28
 170 96 170 96 199 67 c 0,29,30
 218 48 218 48 257 31 c 0,31,32
 267 27 267 27 283 18.5 c 128,-1,33
 299 10 299 10 310 5 c 128,-1,34
 321 0 321 0 329 0 c 2,35,-1
 399 0 l 2,36,37
 410 0 410 0 458.5 8 c 128,-1,38
 507 16 507 16 513 19 c 0,39,40
 516 21 516 21 531.5 24.5 c 128,-1,41
 547 28 547 28 553 31 c 0,42,43
 598 58 598 58 607 67 c 0,44,45
 608 68 608 68 616 74.5 c 128,-1,46
 624 81 624 81 632 89 c 128,-1,47
 640 97 640 97 646 106 c 0,48,49
 654 117 654 117 695 158 c 1,50,51
 674 147 674 147 623 168 c 0,52,53
 609 174 609 174 609 177 c 1,54,55
 530 118 530 118 510 112 c 0,56,57
 501 109 501 109 477 106.5 c 128,-1,58
 453 104 453 104 432.5 102 c 128,-1,59
 412 100 412 100 410 99 c 128,-1,60
 408 98 408 98 392 102.5 c 128,-1,61
 376 107 376 107 357 111.5 c 128,-1,62
 338 116 338 116 332 116 c 128,-1,63
 326 116 326 116 312 122 c 128,-1,64
 298 128 298 128 286 134 c 2,65,-1
 274 140 l 2,66,67
 269 140 269 140 251 161 c 0,68,69
 235 180 235 180 213 223 c 0,70,71
 197 255 197 255 197 279 c 0,72,73
 197 282 197 282 195.5 298 c 128,-1,74
 194 314 194 314 195 327 c 0,75,76
 196 337 196 337 200 349.5 c 128,-1,77
 204 362 204 362 208 370 c 2,78,-1
 211 379 l 1,79,80
 211 404 211 404 233 417 c 0,81,82
 280 445 280 445 311 453 c 0,83,84
 312 453 312 453 319 455.5 c 128,-1,85
 326 458 326 458 331.5 459.5 c 128,-1,86
 337 461 337 461 347 462 c 128,-1,87
 357 463 357 463 366 463 c 0,88,89
 427 461 427 461 446 456 c 0,90,91
 494 444 494 444 524 444 c 0,92,93
 534 444 534 444 567 439 c 128,-1,94
 600 434 600 434 608 434 c 0,95,96
 615 434 615 434 673 417 c 1,97,98
 666 421 666 421 652 468 c 0,99,100
 639 514 639 514 653 511 c 1,1,2
397 623 m 1,101,102
 407 631 407 631 450 629.5 c 128,-1,103
 493 628 493 628 497 615 c 1,104,105
 504 635 504 635 516 652 c 128,-1,106
 528 669 528 669 547.5 685 c 128,-1,107
 567 701 567 701 579.5 710 c 128,-1,108
 592 719 592 719 619 736 c 128,-1,109
 646 753 646 753 655 759 c 1,110,-1
 543 771 l 1,111,-1
 397 623 l 1,101,102
EndSplineSet
EndChar

StartChar: Ccaron
Encoding: 268 268 18
Width: 712
GlyphClass: 1
Flags: W
LayerCount: 2
Fore
SplineSet
581 200 m 1024,0,-1
653 511 m 1,1,2
 561 547 561 547 541 551 c 0,3,4
 508 558 508 558 477 561 c 0,5,6
 426 567 426 567 403 565 c 0,7,8
 375 563 375 563 299 563 c 0,9,10
 272 563 272 563 227 545 c 0,11,12
 194 532 194 532 173 515 c 0,13,14
 170 512 170 512 135 469 c 0,15,16
 114 443 114 443 111 421 c 0,17,18
 109 406 109 406 106.5 370 c 128,-1,19
 104 334 104 334 103 329 c 2,20,21
 103 329 103 329 103 261 c 0,22,23
 103 229 103 229 121 181 c 0,24,25
 124 172 124 172 138 150 c 128,-1,26
 152 128 152 128 155 123 c 0,27,28
 170 96 170 96 199 67 c 0,29,30
 218 48 218 48 257 31 c 0,31,32
 267 27 267 27 283 18.5 c 128,-1,33
 299 10 299 10 310 5 c 128,-1,34
 321 0 321 0 329 0 c 2,35,-1
 399 0 l 2,36,37
 410 0 410 0 458.5 8 c 128,-1,38
 507 16 507 16 513 19 c 0,39,40
 516 21 516 21 531.5 24.5 c 128,-1,41
 547 28 547 28 553 31 c 0,42,43
 598 58 598 58 607 67 c 0,44,45
 608 68 608 68 616 74.5 c 128,-1,46
 624 81 624 81 632 89 c 128,-1,47
 640 97 640 97 646 106 c 0,48,49
 654 117 654 117 695 158 c 1,50,51
 674 147 674 147 623 168 c 0,52,53
 609 174 609 174 609 177 c 1,54,55
 530 118 530 118 510 112 c 0,56,57
 501 109 501 109 477 106.5 c 128,-1,58
 453 104 453 104 432.5 102 c 128,-1,59
 412 100 412 100 410 99 c 128,-1,60
 408 98 408 98 392 102.5 c 128,-1,61
 376 107 376 107 357 111.5 c 128,-1,62
 338 116 338 116 332 116 c 128,-1,63
 326 116 326 116 312 122 c 128,-1,64
 298 128 298 128 286 134 c 2,65,-1
 274 140 l 2,66,67
 269 140 269 140 251 161 c 0,68,69
 235 180 235 180 213 223 c 0,70,71
 197 255 197 255 197 279 c 0,72,73
 197 282 197 282 195.5 298 c 128,-1,74
 194 314 194 314 195 327 c 0,75,76
 196 337 196 337 200 349.5 c 128,-1,77
 204 362 204 362 208 370 c 2,78,-1
 211 379 l 1,79,80
 211 404 211 404 233 417 c 0,81,82
 280 445 280 445 311 453 c 0,83,84
 312 453 312 453 319 455.5 c 128,-1,85
 326 458 326 458 331.5 459.5 c 128,-1,86
 337 461 337 461 347 462 c 128,-1,87
 357 463 357 463 366 463 c 0,88,89
 427 461 427 461 446 456 c 0,90,91
 494 444 494 444 524 444 c 0,92,93
 534 444 534 444 567 439 c 128,-1,94
 600 434 600 434 608 434 c 0,95,96
 615 434 615 434 673 417 c 1,97,98
 666 421 666 421 652 468 c 0,99,100
 639 514 639 514 653 511 c 1,1,2
301 777 m 1,101,102
 330 726 330 726 348 710 c 0,103,104
 374 687 374 687 415 681 c 1,105,-1
 543 771 l 1,106,-1
 655 759 l 1,107,108
 646 753 646 753 619 736 c 128,-1,109
 592 719 592 719 579.5 710 c 128,-1,110
 567 701 567 701 547.5 685 c 128,-1,111
 528 669 528 669 516 652 c 128,-1,112
 504 635 504 635 497 615 c 1,113,114
 493 629 493 629 447.5 633 c 128,-1,115
 402 637 402 637 397 623 c 0,116,117
 395 618 395 618 356.5 646.5 c 128,-1,118
 318 675 318 675 280 706 c 2,119,-1
 243 737 l 1,120,-1
 301 777 l 1,101,102
EndSplineSet
EndChar

StartChar: Dcroat
Encoding: 272 272 19
Width: 632
GlyphClass: 1
Flags: W
LayerCount: 2
Fore
SplineSet
181 453 m 1,0,-1
 257 448 l 1,1,-1
 254 344 l 1,2,3
 185 345 185 345 183 345 c 0,4,5
 165 78 165 78 165 78 c 1,6,7
 185 74 185 74 193 78 c 0,8,9
 196 79 196 79 210.5 79.5 c 128,-1,10
 225 80 225 80 240.5 79.5 c 128,-1,11
 256 79 256 79 271 78.5 c 128,-1,12
 286 78 286 78 287 78 c 0,13,14
 289 78 289 78 293 78.5 c 128,-1,15
 297 79 297 79 308 80 c 128,-1,16
 319 81 319 81 335 82 c 0,17,18
 357 83 357 83 381 86 c 0,19,20
 392 87 392 87 400.5 87.5 c 128,-1,21
 409 88 409 88 413 88 c 128,-1,22
 417 88 417 88 422.5 89 c 128,-1,23
 428 90 428 90 437 94 c 0,24,25
 448 98 448 98 456.5 102.5 c 128,-1,26
 465 107 465 107 471 111 c 128,-1,27
 477 115 477 115 479 116 c 0,28,29
 482 118 482 118 491.5 126.5 c 128,-1,30
 501 135 501 135 504 135 c 0,31,32
 509 135 509 135 526 161 c 0,33,34
 529 166 529 166 532 169 c 128,-1,35
 535 172 535 172 536 173 c 128,-1,36
 537 174 537 174 538.5 175.5 c 128,-1,37
 540 177 540 177 541 179 c 128,-1,38
 542 181 542 181 543 186 c 128,-1,39
 544 191 544 191 546 195.5 c 128,-1,40
 548 200 548 200 549 205.5 c 128,-1,41
 550 211 550 211 551 225 c 0,42,43
 552 236 552 236 546 304 c 0,44,45
 542 354 542 354 540 367 c 0,46,47
 539 375 539 375 538 397.5 c 128,-1,48
 537 420 537 420 536 431 c 0,49,50
 534 450 534 450 528 474.5 c 128,-1,51
 522 499 522 499 518 502 c 0,52,53
 515 504 515 504 508 524.5 c 128,-1,54
 501 545 501 545 500 547 c 0,55,56
 471 591 471 591 466 593 c 0,57,58
 462 594 462 594 445.5 609.5 c 128,-1,59
 429 625 429 625 422 625 c 128,-1,60
 415 625 415 625 395.5 632.5 c 128,-1,61
 376 640 376 640 373 641 c 0,62,63
 368 642 368 642 319 650 c 0,64,65
 235 662 235 662 235 662 c 2,66,67
 233 665 233 665 227 665 c 0,68,69
 193 664 193 664 193 664 c 1,70,-1
 181 453 l 1,0,-1
87 566 m 2,71,-1
 93 748 l 1,72,-1
 303 746 l 1,73,74
 365 732 365 732 385 724 c 0,75,76
 391 722 391 722 407 717.5 c 128,-1,77
 423 713 423 713 439.5 706.5 c 128,-1,78
 456 700 456 700 471 690 c 0,79,80
 519 659 519 659 557 606 c 0,81,82
 573 583 573 583 605 488 c 0,83,84
 608 479 608 479 616.5 438 c 128,-1,85
 625 397 625 397 625 392 c 0,86,87
 625 391 625 391 624 363.5 c 128,-1,88
 623 336 623 336 622.5 314.5 c 128,-1,89
 622 293 622 293 623 280 c 0,90,91
 625 264 625 264 625 214 c 0,92,93
 625 189 625 189 619 156 c 0,94,95
 619 154 619 154 617.5 147.5 c 128,-1,96
 616 141 616 141 615.5 138.5 c 128,-1,97
 615 136 615 136 614 131 c 128,-1,98
 613 126 613 126 611.5 123 c 128,-1,99
 610 120 610 120 607.5 116 c 128,-1,100
 605 112 605 112 601.5 108.5 c 128,-1,101
 598 105 598 105 593 102 c 0,102,103
 573 87 573 87 537 72 c 0,104,105
 515 62 515 62 469 50 c 0,106,107
 436 41 436 41 391 32 c 0,108,109
 361 26 361 26 313 26 c 0,110,111
 310 26 310 26 284 25 c 128,-1,112
 258 24 258 24 251 24 c 0,113,114
 246 24 246 24 219.5 25 c 128,-1,115
 193 26 193 26 183 26 c 0,116,117
 174 26 174 26 156.5 27 c 128,-1,118
 139 28 139 28 129 28 c 0,119,120
 120 28 120 28 108 28.5 c 128,-1,121
 96 29 96 29 88 30 c 2,122,-1
 79 30 l 2,123,124
 78 30 78 30 79 107 c 128,-1,125
 80 184 80 184 82 261 c 2,126,-1
 83 338 l 1,127,128
 77 339 77 339 68 341 c 128,-1,129
 59 343 59 343 39.5 347 c 128,-1,130
 20 351 20 351 8.5 353.5 c 128,-1,131
 -3 356 -3 356 0 356 c 0,132,133
 15 456 15 456 15 456 c 2,134,135
 16 456 16 456 17 456 c 128,-1,136
 18 456 18 456 22 456 c 128,-1,137
 26 456 26 456 30 456.5 c 128,-1,138
 34 457 34 457 39.5 457 c 128,-1,139
 45 457 45 457 50 457 c 128,-1,140
 55 457 55 457 60 457 c 128,-1,141
 65 457 65 457 69 457.5 c 128,-1,142
 73 458 73 458 76.5 458 c 128,-1,143
 80 458 80 458 82 458 c 2,144,-1
 83 458 l 1,145,146
 82 458 82 458 83.5 477 c 128,-1,147
 85 496 85 496 86.5 523.5 c 128,-1,148
 88 551 88 551 87 566 c 2,71,-1
EndSplineSet
EndChar

StartChar: cacute
Encoding: 263 263 20
Width: 542
GlyphClass: 1
Flags: W
LayerCount: 2
Fore
SplineSet
257 465 m 1,0,1
 265 466 265 466 279 470 c 128,-1,2
 293 474 293 474 301 474 c 128,-1,3
 309 474 309 474 333 467 c 1,4,5
 330 501 330 501 413 551 c 1,6,7
 413 551 413 551 349 552 c 1,8,9
 257 465 257 465 257 465 c 1,0,1
458 327 m 1,10,11
 438 326 438 326 480 358 c 0,12,13
 521 390 521 390 535 391 c 0,14,15
 536 391 536 391 523.5 398.5 c 128,-1,16
 511 406 511 406 495 413 c 128,-1,17
 479 420 479 420 473 420 c 0,18,19
 465 420 465 420 427 423 c 128,-1,20
 389 426 389 426 387 426 c 0,21,22
 384 426 384 426 343 424 c 128,-1,23
 302 422 302 422 299 422 c 0,24,25
 297 422 297 422 284.5 420.5 c 128,-1,26
 272 419 272 419 253.5 417 c 128,-1,27
 235 415 235 415 221 414 c 0,28,29
 215 414 215 414 145 402 c 0,30,31
 134 400 134 400 126.5 398 c 128,-1,32
 119 396 119 396 111 392.5 c 128,-1,33
 103 389 103 389 97.5 386 c 128,-1,34
 92 383 92 383 81.5 376.5 c 128,-1,35
 71 370 71 370 63 366 c 0,36,37
 50 359 50 359 41.5 350.5 c 128,-1,38
 33 342 33 342 30 337 c 128,-1,39
 27 332 27 332 22 320.5 c 128,-1,40
 17 309 17 309 15 304 c 0,41,42
 1 276 1 276 1 228 c 0,43,44
 1 115 1 115 3 108 c 0,45,46
 13 71 13 71 23 60 c 0,47,48
 25 58 25 58 31 49.5 c 128,-1,49
 37 41 37 41 41 35.5 c 128,-1,50
 45 30 45 30 53.5 25 c 128,-1,51
 62 20 62 20 72 19 c 0,52,53
 136 14 136 14 193 9 c 0,54,55
 207 7 207 7 268.5 8 c 128,-1,56
 330 9 330 9 343 12 c 2,57,-1
 433 32 l 2,58,59
 457 37 457 37 509 69 c 1,60,-1
 513 72 l 1,61,62
 501 69 501 69 472 92 c 0,63,64
 446 112 446 112 459 120 c 1,65,-1
 396 102 l 2,66,67
 342 90 342 90 330 86 c 128,-1,68
 318 82 318 82 259 82 c 0,69,70
 250 82 250 82 232.5 81 c 128,-1,71
 215 80 215 80 205.5 79.5 c 128,-1,72
 196 79 196 79 187 80 c 0,73,74
 183 81 183 81 163 81.5 c 128,-1,75
 143 82 143 82 137 84 c 0,76,77
 130 87 130 87 118.5 96 c 128,-1,78
 107 105 107 105 105 108 c 0,79,80
 100 119 100 119 93 152 c 0,81,82
 87 182 87 182 87 214 c 0,83,84
 87 249 87 249 95 268 c 0,85,86
 107 297 107 297 137 306 c 128,-1,87
 167 315 167 315 219 322 c 0,88,89
 236 324 236 324 254 324.5 c 128,-1,90
 272 325 272 325 279 326 c 0,91,92
 379 336 379 336 387 336 c 0,93,94
 458 327 458 327 458 327 c 1,10,11
EndSplineSet
EndChar

StartChar: ccaron
Encoding: 269 269 21
Width: 532
GlyphClass: 1
Flags: W
LayerCount: 2
Fore
SplineSet
341 469 m 1,0,1
 344 474 344 474 347.5 487.5 c 128,-1,2
 351 501 351 501 356 508.5 c 128,-1,3
 361 516 361 516 380.5 533.5 c 128,-1,4
 400 551 400 551 434 573 c 1,5,6
 376 579 376 579 374 579 c 0,7,8
 368 579 368 579 350.5 564 c 128,-1,9
 333 549 333 549 320 534 c 128,-1,10
 307 519 307 519 312 519 c 1,11,12
 300 524 300 524 291.5 529 c 128,-1,13
 283 534 283 534 277 541 c 128,-1,14
 271 548 271 548 268.5 552 c 128,-1,15
 266 556 266 556 262 565 c 128,-1,16
 258 574 258 574 257 576 c 2,17,-1
 205 560 l 1,18,-1
 255 472 l 1,19,20
 281 488 281 488 341 469 c 1,0,1
442 328 m 1,21,22
 422 327 422 327 464 365 c 0,23,24
 505 402 505 402 519 403 c 1,25,-1
 492 416 l 2,26,27
 481 420 481 420 475 420 c 0,28,29
 467 420 467 420 429 423 c 128,-1,30
 391 426 391 426 389 426 c 0,31,32
 386 426 386 426 345 424 c 128,-1,33
 304 422 304 422 301 422 c 0,34,35
 299 422 299 422 286.5 420.5 c 128,-1,36
 274 419 274 419 255.5 417 c 128,-1,37
 237 415 237 415 223 414 c 0,38,39
 217 414 217 414 147 402 c 0,40,41
 136 400 136 400 128.5 398 c 128,-1,42
 121 396 121 396 113 392.5 c 128,-1,43
 105 389 105 389 99.5 386 c 128,-1,44
 94 383 94 383 83.5 376.5 c 128,-1,45
 73 370 73 370 65 366 c 0,46,47
 52 359 52 359 43.5 350.5 c 128,-1,48
 35 342 35 342 32 337 c 128,-1,49
 29 332 29 332 24 320.5 c 128,-1,50
 19 309 19 309 17 304 c 0,51,52
 3 276 3 276 3 228 c 0,53,54
 3 115 3 115 5 108 c 0,55,56
 15 71 15 71 25 60 c 0,57,58
 27 58 27 58 33 49.5 c 128,-1,59
 39 41 39 41 43 35.5 c 128,-1,60
 47 30 47 30 55.5 25 c 128,-1,61
 64 20 64 20 74 19 c 0,62,63
 138 14 138 14 195 9 c 0,64,65
 209 7 209 7 270.5 8 c 128,-1,66
 332 9 332 9 345 12 c 2,67,-1
 435 32 l 2,68,69
 459 37 459 37 511 69 c 1,70,-1
 515 72 l 1,71,72
 501 69 501 69 475 79.5 c 128,-1,73
 449 90 449 90 445 112 c 1,74,-1
 398 102 l 2,75,76
 344 90 344 90 332 86 c 128,-1,77
 320 82 320 82 261 82 c 0,78,79
 252 82 252 82 234.5 81 c 128,-1,80
 217 80 217 80 207.5 79.5 c 128,-1,81
 198 79 198 79 189 80 c 0,82,83
 185 81 185 81 165 81.5 c 128,-1,84
 145 82 145 82 139 84 c 0,85,86
 132 87 132 87 120.5 96 c 128,-1,87
 109 105 109 105 107 108 c 0,88,89
 102 119 102 119 95 152 c 0,90,91
 89 182 89 182 89 214 c 0,92,93
 89 249 89 249 97 268 c 0,94,95
 109 297 109 297 139 306 c 128,-1,96
 169 315 169 315 221 322 c 0,97,98
 238 324 238 324 256 324.5 c 128,-1,99
 274 325 274 325 281 326 c 0,100,101
 381 336 381 336 389 336 c 0,102,103
 442 328 442 328 442 328 c 1,21,22
EndSplineSet
EndChar

StartChar: dcroat
Encoding: 273 273 22
Width: 676
GlyphClass: 1
Flags: W
LayerCount: 2
Fore
SplineSet
94 183 m 1,0,1
 92 268 92 268 94 273 c 0,2,3
 95 276 95 276 115 294 c 128,-1,4
 135 312 135 312 138 314 c 0,5,6
 166 328 166 328 184 328 c 0,7,8
 187 328 187 328 208 327 c 128,-1,9
 229 326 229 326 232 327 c 0,10,11
 234 327 234 327 286 324 c 0,12,13
 291 324 291 324 303 324 c 128,-1,14
 315 324 315 324 322.5 323 c 128,-1,15
 330 322 330 322 334 320 c 0,16,17
 337 318 337 318 347.5 309.5 c 128,-1,18
 358 301 358 301 362 299 c 0,19,20
 376 292 376 292 376 276 c 0,21,22
 376 239 376 239 376 239 c 1,23,24
 372 210 372 210 366 196 c 0,25,26
 364 192 364 192 365 183 c 128,-1,27
 366 174 366 174 362 167 c 0,28,29
 360 164 360 164 358 158 c 128,-1,30
 356 152 356 152 354.5 148 c 128,-1,31
 353 144 353 144 349.5 141 c 128,-1,32
 346 138 346 138 340 138 c 0,33,34
 307 136 307 136 296 138 c 0,35,36
 273 143 273 143 210 136 c 0,37,38
 184 133 184 133 156 139 c 0,39,40
 142 142 142 142 129 149 c 128,-1,41
 116 156 116 156 110.5 161.5 c 128,-1,42
 105 167 105 167 106 168 c 0,43,44
 107 168 107 168 104 173.5 c 128,-1,45
 101 179 101 179 98 184 c 2,46,-1
 94 189 l 1,47,-1
 94 183 l 1,0,1
414 384 m 1,48,49
 382 390 382 390 362 394 c 0,50,51
 294 408 294 408 270 406 c 0,52,53
 242 404 242 404 172 404 c 0,54,55
 148 404 148 404 108 394 c 0,56,57
 86 388 86 388 58 370 c 0,58,59
 52 366 52 366 38 350 c 128,-1,60
 24 334 24 334 16 328 c 0,61,62
 3 318 3 318 3 252 c 0,63,64
 3 185 3 185 6 167 c 0,65,66
 7 160 7 160 16 134 c 128,-1,67
 25 108 25 108 26 106 c 0,68,69
 27 100 27 100 41 84 c 128,-1,70
 55 68 55 68 58 66 c 0,71,72
 59 65 59 65 69 58.5 c 128,-1,73
 79 52 79 52 90 45 c 128,-1,74
 101 38 101 38 106 36 c 0,75,76
 109 35 109 35 121.5 29 c 128,-1,77
 134 23 134 23 146.5 18.5 c 128,-1,78
 159 14 159 14 169 14 c 0,79,80
 178 14 178 14 206 13 c 128,-1,81
 234 12 234 12 253 12 c 128,-1,82
 272 12 272 12 289 14 c 128,-1,83
 306 16 306 16 312 16 c 0,84,85
 332 16 332 16 364 32 c 0,86,87
 371 35 371 35 375.5 40.5 c 128,-1,88
 380 46 380 46 382.5 49 c 128,-1,89
 385 52 385 52 386 52 c 0,90,91
 388 51 388 51 387 42 c 128,-1,92
 386 33 386 33 384 22 c 2,93,-1
 382 12 l 1,94,95
 389 12 389 12 406.5 15.5 c 128,-1,96
 424 19 424 19 440.5 18.5 c 128,-1,97
 457 18 457 18 484 12 c 1,98,99
 478 70 478 70 486 139 c 128,-1,100
 494 208 494 208 501.5 244 c 128,-1,101
 509 280 509 280 534 371 c 128,-1,102
 559 462 559 462 564 480 c 1,103,104
 606 491 606 491 648 482 c 1,105,106
 634 524 634 524 666 544 c 1,107,-1
 578 558 l 1,108,109
 575 593 575 593 581.5 630.5 c 128,-1,110
 588 668 588 668 602 719.5 c 128,-1,111
 616 771 616 771 620 788 c 1,112,-1
 486 766 l 1,113,114
 484 754 484 754 480 735 c 128,-1,115
 476 716 476 716 468 676 c 128,-1,116
 460 636 460 636 455 609.5 c 128,-1,117
 450 583 450 583 450 584 c 1,118,119
 378 584 378 584 378 584 c 1,120,-1
 366 522 l 1,121,122
 367 522 367 522 368 521.5 c 128,-1,123
 369 521 369 521 373.5 520 c 128,-1,124
 378 519 378 519 382 518.5 c 128,-1,125
 386 518 386 518 392 516.5 c 128,-1,126
 398 515 398 515 403 514 c 128,-1,127
 408 513 408 513 413.5 511.5 c 128,-1,128
 419 510 419 510 423.5 509 c 128,-1,129
 428 508 428 508 431.5 507 c 128,-1,130
 435 506 435 506 436 505 c 2,131,-1
 438 504 l 1,132,133
 414 384 414 384 414 384 c 1,48,49
EndSplineSet
EndChar

